# xmcd
#
# Track frame offsets:
#	182
#	18302
#	33182
#	48295
#	66620
#	83050
#	99272
#	115672
#	132462
#	147900
#
# Disc length: 2208 seconds
#
# Revision: 0
# Processed by: cddbd v1.4PL0 Copyright (c) Steve Scherf et al.
# Submitted via: EasyCDDAExtractor 5.0.5.1
#
DISCID=80089e0a
DTITLE=Vince Gill - Vintage Gill - The Encore Collection
DYEAR=1900
DGENRE=Country
TTITLE0=I Never Knew Lonely
TTITLE1=Oh Carolina
TTITLE2=Let's Do Something
TTITLE3=The Radio
TTITLE4=Oklahoma Borderline
TTITLE5=It Doesn't Matter Anymore
TTITLE6=Baby That's Tough
TTITLE7='Til The Best Comes Along
TTITLE8=What If I Said Goodbye
TTITLE9=The Way Back Home
EXTD=
EXTT0=
EXTT1=
EXTT2=
EXTT3=
EXTT4=
EXTT5=
EXTT6=
EXTT7=
EXTT8=
EXTT9=
PLAYORDER=
